<?xml version="1.0" standalone="no"?>
<!DOCTYPE svg PUBLIC "-//W3C//DTD SVG 20010904//EN"
 "http://www.w3.org/TR/2001/REC-SVG-20010904/DTD/svg10.dtd">
<svg version="1.0" xmlns="http://www.w3.org/2000/svg"
 width="150.000000pt" height="50.000000pt" viewBox="0 0 150.000000 50.000000"
 preserveAspectRatio="xMidYMid meet">
<metadata>
Created by potrace 1.16, written by Peter Selinger 2001-2019
</metadata>
<g transform="translate(0.000000,50.000000) scale(0.100000,-0.100000)"
fill="#000000" stroke="none">
<path d="M0 250 l0 -250 750 0 750 0 0 250 0 250 -750 0 -750 0 0 -250z m222
5 c33 -132 33 -125 8 -125 -15 0 -22 9 -26 30 -5 25 -11 30 -34 30 -22 0 -30
-6 -39 -30 -10 -31 -41 -42 -41 -15 0 9 12 63 26 121 26 101 28 105 52 102 24
-3 28 -11 54 -113z m100 18 c3 -90 5 -98 23 -98 18 0 20 8 23 98 3 95 3 98 25
95 21 -3 22 -8 22 -99 0 -112 -14 -139 -70 -139 -53 0 -69 29 -74 126 -4 97 1
114 28 114 19 0 21 -8 23 -97z m390 80 c15 -13 18 -32 18 -104 0 -79 -2 -89
-22 -103 -24 -17 -65 -21 -84 -8 -23 15 -34 53 -34 115 0 50 5 70 21 91 24 31
72 35 101 9z m169 7 c20 -11 25 -35 9 -45 -5 -3 -18 0 -28 6 -39 24 -52 6 -52
-71 0 -76 13 -95 50 -72 14 9 21 8 31 -5 29 -35 -55 -58 -99 -27 -20 14 -22
24 -22 104 0 80 2 90 22 104 26 18 61 20 89 6z m169 -10 c17 -17 20 -33 20
-100 0 -91 -17 -120 -70 -120 -53 0 -70 29 -70 120 0 91 17 120 70 120 17 0
39 -9 50 -20z m148 -67 l30 -88 1 88 c1 80 3 87 21 87 19 0 20 -7 20 -120 l0
-120 -33 0 c-33 0 -34 1 -59 83 l-26 82 -1 -82 c-1 -76 -3 -83 -21 -83 -19 0
-20 7 -20 120 l0 120 29 0 c28 0 31 -4 59 -87z"/>
</g>
</svg>
